<svg width="104" height="104" viewBox="0 0 104 104" fill="none" xmlns="http://www.w3.org/2000/svg">
<circle cx="51.7742" cy="51.7742" r="51.7742" fill="#FFB1C8"/>
<path d="M27.4998 12.5C34.9998 8.99998 32.5 11.5 38 8.00003C40.5917 6.3508 43.5598 5.98293 47 5C50.5 3.99998 54 4.5 59.5 4.5C65 4.5 69.5 7.00001 72 9.00001C74.5 11 80.1863 11.7626 84 16C88.5 21 93 29.5 94 34.5C95 39.5 99.5 43.5 99.5 50C99.5 57 98.2678 68.1109 96.5 72C94 77.5 90.5 79.5 86 84C81.1911 88.8088 80.5 93.5 61 98C41.5 102.5 38.9998 95 31.5 90.5C24.0002 86 20.5 86.5 17 84C13.5 81.5 8.85748 71.4327 7.99987 66C6.50021 56.5 3.22664 51.5482 4.49983 45C7.99962 27 11.5 29.5 15.5 25.5C19.1912 21.8088 19.9998 16 27.4998 12.5Z" fill="white"/>
<g filter="url(#filter0_f_40_78)">
<path d="M39.6489 42.66C48.4582 42.5055 77.9537 46.5967 82.2156 50.2283C83.5175 54.1647 81.8874 53.5867 78.6728 54.6376C74.6545 55.9513 69.4652 57.6471 59.9604 58.2653C50.4556 58.8835 45.2127 58.5014 36.9443 56.2604C28.6759 54.0194 24.3367 52.6239 23.3321 50.2283C22.3276 47.8328 30.8396 42.8146 39.6489 42.66Z" fill="#E3AFD1"/>
<path d="M50.6992 66.4607C59.6631 66.4607 83.9238 60.5105 84.9166 65.3746C85.9093 70.2386 82.7528 72.793 74.0208 74.1067C66.9368 75.1724 42.7863 78.1207 33.9151 77.0431C17.7137 75.0751 20.7011 65.3746 25.1831 65.3746C29.665 65.3746 41.7353 66.4607 50.6992 66.4607Z" fill="#E3AFD1"/>
</g>
<path d="M85.303 51.1559C85.303 51.4559 85.1479 51.7541 84.7592 52.0571C84.3661 52.3635 83.7643 52.6485 82.9517 52.9093C81.3297 53.4299 78.9612 53.8254 75.9997 54.1478C71.31 54.6582 65.1907 54.9799 58.3103 55.3416C56.5074 55.4364 54.6523 55.5339 52.7569 55.6383C43.6586 56.1394 36.3105 55.4481 31.2475 54.2127C28.7139 53.5945 26.7678 52.8438 25.463 52.0486C24.1365 51.2401 23.564 50.4444 23.564 49.7649C23.5639 47.7332 24.3321 46.3035 25.7208 45.3111C27.1298 44.3043 29.2039 43.7296 31.839 43.4948C37.1077 43.0254 44.4504 43.9262 52.7268 45.2021C56.8247 45.8339 60.927 46.3914 64.7733 46.9094C65.048 46.9464 65.3215 46.9832 65.5935 47.0198C69.1309 47.4959 72.4301 47.9399 75.2879 48.3804C78.3682 48.8551 80.9216 49.3237 82.7013 49.8201C83.5936 50.069 84.2721 50.3198 84.7215 50.5723C84.9462 50.6985 85.0981 50.8167 85.1909 50.9224C85.2814 51.0256 85.303 51.1016 85.303 51.1559Z" stroke="#C24166" stroke-width="0.618199"/>
<path d="M23.4873 49.8423V67.1905C23.4873 70.0773 25.1966 72.6976 27.9669 73.5094C33.4901 75.128 42.4469 76.8853 53.0063 76.6567C63.606 76.4273 74.1497 74.7362 80.3871 73.2898C83.2992 72.6145 85.1491 69.976 85.1491 66.9866V51.3106" stroke="#C24166" stroke-width="0.618199"/>
<g filter="url(#filter1_f_40_78)">
<path d="M49.3787 34.0208C50.8006 34.4536 52.2894 34.2012 52.8561 34.0208C53.4227 33.7633 54.927 33.279 56.4107 33.4027C58.2653 33.5572 59.6562 35.18 61.279 36.88C62.9018 38.5801 64.0244 46.9059 57.8016 49.0122C50.2924 51.5539 45.9858 46.365 44.7829 44.974C42.3102 42.1149 42.5012 38.5028 43.7376 36.03C44.974 33.5572 47.6014 33.4799 49.3787 34.0208Z" fill="#FFB1C8"/>
</g>
<path d="M51.972 33.9237C53.7235 34.001 55.8998 34.9363 57.3039 36.2419C59.4647 38.2511 61.0131 45.7467 57.3039 48.065C53.5947 50.3832 46.2507 49.2241 44.1643 47.1377C42.0778 45.0513 40.3807 43.3512 40.9989 38.9466C41.6171 34.5419 44.94 32.9191 46.7173 32.8418C48.4946 32.7646 50.269 32.6873 51.0417 35.9328C51.8145 39.1784 49.9946 37.941 49.8826 37.6329C49.2644 35.9328 49.6538 32.9964 50.4265 31.6054C51.1993 30.2145 53.363 22.487 52.9766 18.6233C52.5902 14.7595 53.9812 10.973 52.9766 8.3457" stroke="#C24166" stroke-width="0.463649"/>
<defs>
<filter id="filter0_f_40_78" x="20.864" y="41.883" width="65.0016" height="36.166" filterUnits="userSpaceOnUse" color-interpolation-filters="sRGB">
<feFlood flood-opacity="0" result="BackgroundImageFix"/>
<feBlend mode="normal" in="SourceGraphic" in2="BackgroundImageFix" result="shape"/>
<feGaussianBlur stdDeviation="0.386375" result="effect1_foregroundBlur_40_78"/>
</filter>
<filter id="filter1_f_40_78" x="41.9233" y="32.4555" width="21.5558" height="18.1747" filterUnits="userSpaceOnUse" color-interpolation-filters="sRGB">
<feFlood flood-opacity="0" result="BackgroundImageFix"/>
<feBlend mode="normal" in="SourceGraphic" in2="BackgroundImageFix" result="shape"/>
<feGaussianBlur stdDeviation="0.463649" result="effect1_foregroundBlur_40_78"/>
</filter>
</defs>
</svg>
